<svg  version="1.1" xmlns="http://www.w3.org/2000/svg">
  <symbol id="question" viewBox="0 0 1024 1024">
    <path d="M512 0C229.205556 0 0 229.288889 0 512s229.205556 512 512 512 512-229.377778 512-512C1024 229.288889 794.794444 0 512 0zM592.3 700.333333c-38.655556 58.027778-77.911111 102.655556-144.127778 102.655556-45.138889-7.338889-63.661111-39.677778-53.844444-72.616667l85.077778-281.683333c2.05-6.911111-1.366667-14.25-7.677778-16.466667-6.227778-2.216667-18.6 5.972222-29.266667 17.577778l-51.372222 61.866667c-1.366667-10.327778-0.083333-27.561111-0.083333-34.472222 38.572222-58.027778 102.061111-103.766667 145.15-103.766667 40.872222 4.183333 60.161111 36.95 53.077778 72.872222L503.555556 729.344444c-1.111111 6.483333 2.216667 12.8 8.105556 15.016667 6.227778 2.133333 19.538889-5.972222 30.205556-17.666667l51.455556-61.866667C594.605556 675.161111 592.3 693.333333 592.3 700.333333zM580.866667 332.372222c-32.6 0-58.877778-23.638889-58.877778-58.622222s26.366667-58.622222 58.877778-58.622222c32.427778 0 58.966667 23.638889 58.966667 58.622222S613.377778 332.372222 580.866667 332.372222z" p-id="3664"></path>
  </symbol>

  <symbol id="computer" viewBox="0 0 1024 1024">
    <path d="M23.272727 674.909091c0 51.2 41.890909 93.090909 93.090909 93.090909h279.272728v116.363636h-162.909091c-25.6 0-46.545455 20.945455-46.545455 46.545455s20.945455 46.545455 46.545455 46.545454h558.545454c25.6 0 46.545455-20.945455 46.545455-46.545454s-20.945455-46.545455-46.545455-46.545455h-162.909091v-116.363636h279.272728c51.2 0 93.090909-41.890909 93.090909-93.090909v-46.545455H23.272727v46.545455zM907.636364 69.818182H116.363636C65.163636 69.818182 23.272727 111.709091 23.272727 162.909091v418.909091h977.454546V162.909091c0-51.2-41.890909-93.090909-93.090909-93.090909z"  p-id="2615"></path>
  </symbol>

  <symbol id="github" viewBox="0 0 1024 1024">
    <path d="M941.714 512q0 143.433-83.712 258.011t-216.283 158.574q-15.433 2.853-22.565-3.986t-7.131-17.152v-120.576q0-55.442-29.696-81.152 32.585-3.438 58.587-10.277t53.723-22.272 46.299-37.998 30.281-60.014 11.703-86.016q0-69.157-45.129-117.723 21.138-52.005-4.571-116.553-16.018-5.157-46.299 6.29t-52.553 25.161l-21.723 13.714q-53.138-14.848-109.714-14.848t-109.714 14.848q-9.143-6.29-24.283-15.433t-47.726-22.016-49.152-7.717q-25.161 64.585-3.986 116.553-45.129 48.567-45.129 117.723 0 48.567 11.703 85.723t29.989 60.014 46.007 38.29 53.723 22.272 58.587 10.277q-22.857 20.553-28.014 58.843-11.995 5.705-25.71 8.558t-32.585 2.853-37.413-12.288-31.707-35.73q-10.862-18.286-27.721-29.696t-28.27-13.714l-11.447-1.719q-11.995 0-16.567 2.56t-2.853 6.583 5.157 8.009 7.424 6.839l3.986 2.853q12.581 5.705 24.869 21.723t17.993 29.147l5.705 13.129q7.424 21.723 25.161 35.145t38.29 17.152 39.717 3.986 31.707-2.011l13.129-2.304q0 21.723 0.293 50.871t0.293 30.866q0 10.277-7.424 17.152t-22.857 3.986q-132.571-43.995-216.283-158.574t-83.712-258.011q0-119.442 58.843-220.27t159.707-159.707 220.27-58.843 220.27 58.843 159.707 159.707 58.843 220.27z" p-id="12243"></path>
  </symbol>
  <symbol id="close" viewBox="0 0 1024 1024">
    <path d="M184.64768 836.34176c3.9936 3.9936 9.23648 5.98016 14.47936 5.98016 5.24288 0 10.48576-2.00704 14.49984-6.00064l292.70016-293.04832 292.70016 293.04832c3.9936 4.01408 9.23648 6.00064 14.49984 6.00064 5.24288 0 10.48576-2.00704 14.47936-5.98016 8.00768-7.9872 8.00768-20.95104 0.02048-28.95872L535.61344 514.64192 828.0064 221.92128c7.9872-8.00768 7.9872-20.97152-0.02048-28.95872-8.02816-8.00768-20.97152-8.00768-28.95872 0.02048L506.30656 486.03136 213.6064 192.98304c-8.00768-8.00768-20.97152-8.00768-28.95872-0.02048-8.00768 7.9872-8.00768 20.95104-0.02048 28.95872l292.37248 292.72064L184.6272 807.38304C176.64 815.37024 176.64 828.35456 184.64768 836.34176z" p-id="1105"></path>
  </symbol>

  <symbol id="copy" viewBox="0 0 1024 1024">
    <path d="M884.356845 265.48042c-7.061109-7.993045-15.433129-11.990079-25.117082-11.990079L325.42503 253.490342c-9.68293 0-18.055972 3.997034-25.117082 11.990079-7.061109 7.993045-10.591664 17.866926-10.591664 29.622668l0 622.082164c0 11.285021 3.530555 21.042245 10.591664 29.269627 7.061109 8.228405 15.433129 12.343119 25.117082 12.343119l409.137037 0c3.227643 0 9.381042-4.113691 18.460195-12.343119 9.07813-8.228405 19.569506-18.574031 31.47208-31.033807 11.902574-12.4608 24.410971-26.331715 37.524167-41.612747 13.113196-15.282055 25.01577-29.858028 35.708745-43.728944 10.691952-13.870916 19.569506-26.096355 26.629592-36.675294 7.060086-10.579963 10.591664-17.750269 10.591664-21.511943l0-476.789057C894.948509 283.347346 891.417954 273.473465 884.356845 265.48042zM340.54399 548.453237c0-10.106172 8.193957-18.299785 18.300553-18.299785l466.976731 0c10.106596 0 18.300553 8.193613 18.300553 18.299785l0 14.240329c0 10.106172-8.193957 18.299785-18.300553 18.299785L358.844543 580.993351c-10.106596 0-18.300553-8.193613-18.300553-18.299785L340.54399 548.453237zM844.390967 689.792289c0 10.106172-8.193957 18.299785-18.300553 18.299785L359.113684 708.092074c-10.106596 0-18.300553-8.193613-18.300553-18.299785l0-14.240329c0-10.106172 8.193957-18.299785 18.300553-18.299785l466.976731 0c10.106596 0 18.300553 8.193613 18.300553 18.299785L844.390967 689.792289zM844.390967 435.997002c0 10.106172-8.193957 18.299785-18.300553 18.299785L359.113684 454.296787c-10.106596 0-18.300553-8.193613-18.300553-18.299785l0-14.240329c0-10.106172 8.193957-18.299785 18.300553-18.299785l466.976731 0c10.106596 0 18.300553 8.193613 18.300553 18.299785L844.390967 435.997002z" p-id="1760"></path><path d="M226.826362 193.58088l540.328351 0L767.154714 110.914112c0-9.611915-7.792804-17.404392-17.405122-17.404392L146.456614 93.50972c-9.612319 0-17.405122 7.792477-17.405122 17.404392l0 767.251452c0 9.611915 7.792804 17.404392 17.405122 17.404392l80.369749 0L226.826362 193.58088z" p-id="1761"></path>
  </symbol>
  <symbol id="code" viewBox="0 0 1024 1024">
    <path d="M448 576 384 512l-192 192L384 896l64-64-128-128L448 576zM576 832l64 64 192-192L640 512 576 576 704 704 576 832zM903.5 199.375 760.625 56.625C729.5 25.5 668 0 624 0l-480 0c-44 0-80 36-80 80l0 864c0 44 36 80 80 80l736 0c44 0 80-36 80-80l0-608C960 292 934.5 230.5 903.5 199.375L903.5 199.375zM858.25 244.625c3.125 3.125 6.25 7 9.25 11.375L704 256 704 92.5c4.375 3 8.25 6.125 11.375 9.25L858.25 244.625 858.25 244.625zM896 944c0 8.625-7.375 16-16 16L144 960c-8.625 0-16-7.375-16-16L128 80c0-8.625 7.375-16 16-16l480 0c4.875 0 10.25 0.625 16 1.75L640 320l254.25 0c1.125 5.75 1.75 11.125 1.75 16L896 944 896 944zM896 944" p-id="2605"></path>
  </symbol>
</svg>
