<svg  version="1.1" xmlns="http://www.w3.org/2000/svg">
  <symbol id="question" viewBox="0 0 1024 1024">
    <path d="M512 0C229.205556 0 0 229.288889 0 512s229.205556 512 512 512 512-229.377778 512-512C1024 229.288889 794.794444 0 512 0zM592.3 700.333333c-38.655556 58.027778-77.911111 102.655556-144.127778 102.655556-45.138889-7.338889-63.661111-39.677778-53.844444-72.616667l85.077778-281.683333c2.05-6.911111-1.366667-14.25-7.677778-16.466667-6.227778-2.216667-18.6 5.972222-29.266667 17.577778l-51.372222 61.866667c-1.366667-10.327778-0.083333-27.561111-0.083333-34.472222 38.572222-58.027778 102.061111-103.766667 145.15-103.766667 40.872222 4.183333 60.161111 36.95 53.077778 72.872222L503.555556 729.344444c-1.111111 6.483333 2.216667 12.8 8.105556 15.016667 6.227778 2.133333 19.538889-5.972222 30.205556-17.666667l51.455556-61.866667C594.605556 675.161111 592.3 693.333333 592.3 700.333333zM580.866667 332.372222c-32.6 0-58.877778-23.638889-58.877778-58.622222s26.366667-58.622222 58.877778-58.622222c32.427778 0 58.966667 23.638889 58.966667 58.622222S613.377778 332.372222 580.866667 332.372222z" p-id="3664"></path>
  </symbol>

  <symbol id="computer" viewBox="0 0 1024 1024">
    <path d="M23.272727 674.909091c0 51.2 41.890909 93.090909 93.090909 93.090909h279.272728v116.363636h-162.909091c-25.6 0-46.545455 20.945455-46.545455 46.545455s20.945455 46.545455 46.545455 46.545454h558.545454c25.6 0 46.545455-20.945455 46.545455-46.545454s-20.945455-46.545455-46.545455-46.545455h-162.909091v-116.363636h279.272728c51.2 0 93.090909-41.890909 93.090909-93.090909v-46.545455H23.272727v46.545455zM907.636364 69.818182H116.363636C65.163636 69.818182 23.272727 111.709091 23.272727 162.909091v418.909091h977.454546V162.909091c0-51.2-41.890909-93.090909-93.090909-93.090909z"  p-id="2615"></path>
  </symbol>
</svg>
